<svg width="52" height="52" viewBox="0 0 52 52" fill="none" xmlns="http://www.w3.org/2000/svg">
<g clip-path="url(#clip0_404_165)">
    <path fill="#FF6C6C" d="M34.1897 45.4567C31.8931 47.6667 28.9464 48.7717 25.9997 48.7717C23.0531 48.7717 20.1064 47.6451 17.8097 45.4351C17.0297 44.6984 16.2497 43.8751 15.4697 43.0301L43.4197 15.0801C43.9614 16.2501 44.3731 17.4851 44.6764 18.8501C47.2114 30.0301 40.3647 39.4767 34.1897 45.4567Z" />
    <path fill="#FF6C6C" d="M47.1679 4.83174C46.5179 4.18174 45.4563 4.18174 44.8063 4.83174L4.83125 44.8284C4.18125 45.4784 4.18125 46.5401 4.83125 47.1901C5.15625 47.4934 5.56792 47.6667 6.00125 47.6667C6.43458 47.6667 6.84625 47.4934 7.17125 47.1684L47.1679 7.17174C47.8396 6.52174 47.8396 5.48174 47.1679 4.83174Z" />
    <path fill="#FF6C6C" d="M19.1747 22.3383C19.1747 18.5683 22.2297 15.5133 25.9997 15.5133C28.838 15.5133 31.2647 17.2466 32.3047 19.7166L40.928 11.0933C37.093 6.45658 31.2863 4.33325 25.9997 4.33325C22.1647 4.33325 18.0697 5.45992 14.6463 7.82159C11.223 10.2049 8.44968 13.8233 7.32301 18.8283C5.50301 26.7799 8.44968 33.8866 12.5447 39.4549L23.378 28.6216C20.908 27.6033 19.1747 25.1549 19.1747 22.3383Z" />
    <defs>
    <clipPath id="clip0_404_165">
    <rect width="52" height="52" fill="white"></rect>
    </clipPath>
    </defs>
</g>
</svg>
